<svg id="Layer_1" data-name="Layer 1" xmlns="http://www.w3.org/2000/svg" viewBox="0 0 352 152"><defs><style>.cls-1{fill:#fff;}.cls-2{fill:#f15a24;}</style></defs><title>Artboard 1</title><circle class="cls-1" cx="77" cy="61" r="22.5"/><path class="cls-2" d="M77,43A18,18,0,1,1,59,61,18,18,0,0,1,77,43m0-9a27,27,0,1,0,27,27A27,27,0,0,0,77,34Z"/><circle class="cls-2" cx="95" cy="77" r="17.88"/><path class="cls-1" d="M95,59.25A17.75,17.75,0,1,1,77.25,77,17.77,17.77,0,0,1,95,59.25M95,59a18,18,0,1,0,18,18A18,18,0,0,0,95,59Z"/></svg>