<?xml version="1.0" encoding="utf-8"?>
<!-- Generator: Adobe Illustrator 22.0.0, SVG Export Plug-In . SVG Version: 6.00 Build 0)  -->
<svg version="1.1" baseProfile="tiny" id="Layer_2" xmlns="http://www.w3.org/2000/svg" xmlns:xlink="http://www.w3.org/1999/xlink"
	 x="0px" y="0px" viewBox="0 0 352 152" xml:space="preserve">
<rect x="14.3" y="14.8" fill="none" width="221" height="53.9"/>
<text transform="matrix(1 0 0 1 14.314 23.8237)" fill="#ED1C24" font-family="'Roboto-Regular'" font-size="12px">S</text>
<text transform="matrix(1 0 0 1 21.793 23.8237)" fill="#ED1C24" font-family="'Roboto-Regular'" font-size="12px">m</text>
<text transform="matrix(1 0 0 1 32.6709 23.8237)" fill="#ED1C24" font-family="'Roboto-Regular'" font-size="12px">a</text>
<text transform="matrix(1 0 0 1 39.5581 23.8237)" fill="#ED1C24" font-family="'Roboto-Regular'" font-size="12px">r</text>
<text transform="matrix(1 0 0 1 44.2715 23.8237)" fill="#ED1C24" font-family="'Roboto-Regular'" font-size="12px">t</text>
<text transform="matrix(1 0 0 1 14.314 38.2236)" fill="#ED1C24" font-family="'Roboto-Regular'" font-size="12px"> </text>
<text transform="matrix(1 0 0 1 17.6445 38.2236)" fill="#ED1C24" font-family="'Roboto-Regular'" font-size="12px"> </text>
<text transform="matrix(1 0 0 1 20.9756 38.2236)" fill="#ED1C24" font-family="'Roboto-Regular'" font-size="12px">B</text>
<text transform="matrix(1 0 0 1 28.8062 38.2236)" fill="#ED1C24" font-family="'Roboto-Regular'" font-size="12px">u</text>
<text transform="matrix(1 0 0 1 35.7813 38.2236)" fill="#ED1C24" font-family="'Roboto-Regular'" font-size="12px">i</text>
<text transform="matrix(1 0 0 1 39.0532 38.2236)" fill="#ED1C24" font-family="'Roboto-Regular'" font-size="12px">l</text>
<text transform="matrix(1 0 0 1 42.3257 38.2236)" fill="#ED1C24" font-family="'Roboto-Regular'" font-size="12px">d</text>
<text transform="matrix(1 0 0 1 49.4531 38.2236)" fill="#ED1C24" font-family="'Roboto-Regular'" font-size="12px">i</text>
<text transform="matrix(1 0 0 1 52.7251 38.2236)" fill="#ED1C24" font-family="'Roboto-Regular'" font-size="12px">n</text>
<text transform="matrix(1 0 0 1 59.7065 38.2236)" fill="#ED1C24" font-family="'Roboto-Regular'" font-size="12px">g</text>
<text transform="matrix(1 0 0 1 14.314 52.6235)" fill="#ED1C24" font-family="'Roboto-Regular'" font-size="12px"> </text>
<text transform="matrix(1 0 0 1 17.6445 52.6235)" fill="#ED1C24" font-family="'Roboto-Regular'" font-size="12px"> </text>
<text transform="matrix(1 0 0 1 20.9756 52.6235)" fill="#ED1C24" font-family="'Roboto-Regular'" font-size="12px"> </text>
<text transform="matrix(1 0 0 1 24.3062 52.6235)" fill="#ED1C24" font-family="'Roboto-Regular'" font-size="12px"> </text>
<text transform="matrix(1 0 0 1 27.6367 52.6235)" fill="#ED1C24" font-family="'Roboto-Regular'" font-size="12px"> </text>
<text transform="matrix(1 0 0 1 30.9673 52.6235)" fill="#ED1C24" font-family="'Roboto-Regular'" font-size="12px">S</text>
<text transform="matrix(1 0 0 1 38.4468 52.6235)" fill="#ED1C24" font-family="'Roboto-Regular'" font-size="12px">o</text>
<text transform="matrix(1 0 0 1 45.6504 52.6235)" fill="#ED1C24" font-family="'Roboto-Regular'" font-size="12px">l</text>
<text transform="matrix(1 0 0 1 48.9224 52.6235)" fill="#ED1C24" font-family="'Roboto-Regular'" font-size="12px">u</text>
<text transform="matrix(1 0 0 1 55.8979 52.6235)" fill="#ED1C24" font-family="'Roboto-Regular'" font-size="12px">t</text>
<text transform="matrix(1 0 0 1 60.1777 52.6235)" fill="#ED1C24" font-family="'Roboto-Regular'" font-size="12px">i</text>
<text transform="matrix(1 0 0 1 63.4497 52.6235)" fill="#ED1C24" font-family="'Roboto-Regular'" font-size="12px">o</text>
<text transform="matrix(1 0 0 1 70.6533 52.6235)" fill="#ED1C24" font-family="'Roboto-Regular'" font-size="12px">n</text>
<text transform="matrix(1 0 0 1 77.6348 52.6235)" fill="#ED1C24" font-family="'Roboto-Regular'" font-size="12px">s</text>
</svg>
